<svg aria-hidden="true" style="position: absolute; width: 0; height: 0; overflow: hidden;" version="1.1" xmlns="http://www.w3.org/2000/svg" xmlns:xlink="http://www.w3.org/1999/xlink">
    <defs>

        <symbol id="Logo_Bishen" viewBox="0 0 99 32">
        <path fill="#fdb913" style="fill: var(--color1, #fdb913)" d="M87.389-4.131h-84.887v30.313h93.905v-20.422z"></path>
        <path fill="#f37021" style="fill: var(--color2, #f37021)" d="M2.502 26.182l-9.949 9.135h113.804l-9.949-9.135z"></path>
        <path fill="#f37021" style="fill: var(--color2, #f37021)" d="M96.64 5.76h-9.251v-9.891z"></path>
        <path fill="#fff" style="fill: var(--color3, #fff)" d="M15.302 2.153c0.175 0 0.349 0 0.465 0.058s0.233 0.116 0.291 0.233c0.058 0.116 0.116 0.233 0.116 0.349s0.058 0.291 0.058 0.465c0 0.175 0 0.291-0.058 0.407 0 0.116-0.058 0.233-0.116 0.349-0.116 0.058-0.175 0.116-0.349 0.175-0.116 0.058-0.291 0.058-0.465 0.058h-0.291v1.455h-0.407v-3.549h0.756zM14.953 3.898h0.291c0.116 0 0.233 0 0.291-0.058s0.116-0.116 0.175-0.175c0.058-0.058 0.058-0.116 0.058-0.233 0-0.058 0-0.175 0-0.291s0-0.175 0-0.291c0-0.058-0.058-0.175-0.058-0.233-0.058-0.058-0.116-0.116-0.175-0.175s-0.175-0.058-0.291-0.058h-0.291v1.513z"></path>
        <path fill="#fff" style="fill: var(--color3, #fff)" d="M20.364 5.702l-0.524-1.571h-0.407v1.571h-0.407v-3.549h0.815c0.291 0 0.524 0.058 0.64 0.233s0.233 0.407 0.233 0.756c0 0.233 0 0.407-0.116 0.524-0.058 0.175-0.175 0.291-0.349 0.349l0.524 1.687h-0.407zM20.305 3.142c0-0.116 0-0.175 0-0.233s-0.058-0.175-0.058-0.233c-0.058-0.058-0.116-0.116-0.175-0.116s-0.175-0.058-0.233-0.058h-0.291v1.28h0.349c0.116 0 0.175 0 0.233-0.058 0.058 0 0.116-0.058 0.175-0.116s0.058-0.116 0.058-0.175c-0.058-0.116-0.058-0.175-0.058-0.291z"></path>
        <path fill="#fff" style="fill: var(--color3, #fff)" d="M23.738 5.702v-3.549h0.407v3.607h-0.407z"></path>
        <path fill="#fff" style="fill: var(--color3, #fff)" d="M27.578 3.258v2.444h-0.407v-3.549h0.407l0.756 1.804 0.233 0.64v-2.444h0.407v3.607h-0.407l-0.756-1.804-0.233-0.698z"></path>
        <path fill="#fff" style="fill: var(--color3, #fff)" d="M32.756 2.502v3.2h-0.407v-3.2h-0.582v-0.349h1.629v0.349h-0.64z"></path>
        <path fill="#fff" style="fill: var(--color3, #fff)" d="M43.578 2.153c0.175 0 0.349 0 0.465 0.058 0.058 0.058 0.175 0.116 0.233 0.175 0.058 0.116 0.116 0.233 0.116 0.349s0.058 0.291 0.058 0.465c0 0.175 0 0.291-0.058 0.407 0 0.116-0.058 0.233-0.116 0.349s-0.175 0.175-0.291 0.233c-0.116 0.058-0.291 0.058-0.465 0.058h-0.291v1.455h-0.407v-3.549h0.756zM43.229 3.898h0.291c0.116 0 0.233 0 0.291-0.058s0.116-0.116 0.175-0.175c0.058-0.058 0.058-0.116 0.058-0.233 0-0.058 0-0.175 0-0.291s0-0.175 0-0.291c0-0.058-0.058-0.175-0.058-0.233-0.058-0.058-0.116-0.116-0.175-0.175s-0.175-0.058-0.291-0.058h-0.291v1.513z"></path>
        <path fill="#fff" style="fill: var(--color3, #fff)" d="M48.64 5.702l-0.524-1.571h-0.407v1.571h-0.407v-3.549h0.815c0.291 0 0.524 0.058 0.64 0.233s0.233 0.407 0.233 0.756c0 0.233-0.058 0.407-0.116 0.524-0.058 0.175-0.175 0.291-0.349 0.349l0.524 1.687h-0.407zM48.582 3.142c0-0.116 0-0.175 0-0.233s-0.058-0.175-0.058-0.233c-0.058-0.058-0.116-0.116-0.175-0.116s-0.175-0.058-0.233-0.058h-0.291v1.28h0.349c0.116 0 0.175 0 0.233-0.058 0.058 0 0.116-0.058 0.175-0.116s0.058-0.116 0.058-0.175c-0.058-0.116-0.058-0.175-0.058-0.291z"></path>
        <path fill="#fff" style="fill: var(--color3, #fff)" d="M53.585 4.771c0 0.349-0.058 0.582-0.175 0.756s-0.349 0.291-0.64 0.291c-0.291 0-0.524-0.058-0.64-0.233s-0.175-0.349-0.175-0.64v-1.745c0-0.116 0-0.233 0.058-0.349 0-0.116 0.058-0.233 0.116-0.349 0-0.175 0.116-0.291 0.233-0.349s0.233-0.058 0.407-0.058c0.175 0 0.349 0 0.407 0.058 0.116 0.058 0.175 0.116 0.233 0.233 0.116 0.058 0.116 0.175 0.175 0.291 0 0.116 0 0.233 0 0.407v1.687zM53.178 3.025c0-0.058 0-0.116 0-0.175s0-0.116-0.058-0.175c0-0.058-0.058-0.116-0.116-0.116-0.058-0.058-0.116-0.058-0.233-0.058s-0.175 0-0.233 0.058c-0.058 0.058-0.116 0.116-0.116 0.175-0.058 0.058-0.058 0.116-0.058 0.233 0 0.058 0 0.116 0 0.175v1.745c0 0.058 0 0.116 0 0.175s0 0.116 0.058 0.175c0.058 0.058 0.058 0.116 0.116 0.116 0.058 0.058 0.116 0.058 0.233 0.058 0.058 0 0.175 0 0.233-0.058s0.116-0.058 0.116-0.116 0.058-0.116 0.058-0.175c0-0.058 0-0.116 0-0.233v-1.804z"></path>
        <path fill="#fff" style="fill: var(--color3, #fff)" d="M57.425 2.153c0.233 0 0.407 0.058 0.524 0.116s0.233 0.175 0.233 0.349c0.058 0.116 0.058 0.349 0.058 0.524 0 0.233 0 0.465 0 0.756s0 0.524 0 0.756c0 0.233 0 0.407-0.058 0.524-0.058 0.233-0.175 0.349-0.291 0.407s-0.291 0.116-0.465 0.116h-0.815v-3.549h0.815zM57.833 3.025c0-0.175-0.058-0.291-0.116-0.407s-0.175-0.116-0.349-0.116h-0.349v2.851h0.349c0.175 0 0.291-0.058 0.349-0.116 0.058-0.116 0.116-0.233 0.116-0.407v-1.804z"></path>
        <path fill="#fff" style="fill: var(--color3, #fff)" d="M62.895 2.153v2.618c0 0.349-0.058 0.582-0.175 0.756s-0.349 0.291-0.64 0.291c-0.291 0-0.524-0.058-0.64-0.233s-0.175-0.349-0.175-0.64v-2.793h0.407v2.735c0 0.058 0 0.116 0 0.175s0.058 0.116 0.058 0.175c0.058 0.058 0.058 0.116 0.116 0.116 0.058 0.058 0.116 0.058 0.233 0.058 0.058 0 0.175 0 0.233-0.058s0.116-0.058 0.116-0.116 0.058-0.116 0.058-0.175c0-0.058 0-0.116 0-0.233v-2.676h0.407z"></path>
        <path fill="#fff" style="fill: var(--color3, #fff)" d="M66.676 2.095c0.291 0 0.465 0.058 0.582 0.233s0.175 0.349 0.175 0.582l-0.407 0.058c0-0.175 0-0.291-0.058-0.349-0.058-0.116-0.175-0.116-0.291-0.116-0.058 0-0.175 0-0.175 0.058-0.058 0.058-0.116 0.058-0.116 0.116s-0.058 0.116-0.058 0.175c0 0.058 0 0.116 0 0.175v1.804c0 0.058 0 0.116 0 0.175s0.058 0.116 0.058 0.175c0.058 0.058 0.058 0.116 0.116 0.116 0.058 0.058 0.116 0.058 0.175 0.058 0.116 0 0.233-0.058 0.291-0.116s0.116-0.233 0.116-0.407l0.407 0.058c0 0.233-0.058 0.465-0.233 0.582-0.116 0.116-0.349 0.233-0.582 0.233-0.291 0-0.465-0.058-0.582-0.233s-0.175-0.349-0.175-0.64v-1.687c0-0.116 0-0.233 0.058-0.349 0-0.116 0.058-0.233 0.116-0.349s0.116-0.175 0.233-0.233c0.058-0.058 0.175-0.116 0.349-0.116z"></path>
        <path fill="#fff" style="fill: var(--color3, #fff)" d="M71.156 2.502v3.2h-0.407v-3.2h-0.582v-0.349h1.629v0.349h-0.64z"></path>
        <path fill="#fff" style="fill: var(--color3, #fff)" d="M74.531 5.702v-3.549h0.407v3.607h-0.407z"></path>
        <path fill="#fff" style="fill: var(--color3, #fff)" d="M79.593 4.771c0 0.349-0.058 0.582-0.175 0.756s-0.349 0.291-0.64 0.291c-0.291 0-0.524-0.058-0.64-0.233s-0.175-0.349-0.175-0.64v-1.745c0-0.116 0-0.233 0.058-0.349 0-0.116 0.058-0.233 0.116-0.349s0.116-0.175 0.233-0.233c0.116-0.058 0.233-0.058 0.407-0.058s0.349 0 0.407 0.058c0.116 0.058 0.175 0.116 0.233 0.233s0.116 0.175 0.116 0.291c0 0.116 0.058 0.233 0.058 0.407v1.571zM79.185 3.025c0-0.058 0-0.116 0-0.175s0-0.116-0.058-0.175c0-0.058-0.058-0.116-0.116-0.116-0.058-0.058-0.116-0.058-0.233-0.058s-0.175 0-0.233 0.058c-0.058 0.058-0.116 0.116-0.116 0.175s-0.058 0.116-0.058 0.233c0 0.058 0 0.116 0 0.175v1.745c0 0.058 0 0.116 0 0.175s0.058 0.116 0.058 0.175c0.058 0.058 0.058 0.116 0.116 0.116 0.058 0.058 0.116 0.058 0.233 0.058 0.058 0 0.175 0 0.233-0.058s0.116-0.058 0.116-0.116 0.058-0.116 0.058-0.175c0-0.058 0-0.116 0-0.233v-1.804z"></path>
        <path fill="#fff" style="fill: var(--color3, #fff)" d="M83.025 3.258v2.444h-0.407v-3.549h0.407l0.756 1.804 0.233 0.64v-2.444h0.407v3.607h-0.407l-0.756-1.804-0.233-0.698z"></path>
        <path fill="#f37021" style="fill: var(--color2, #f37021)" d="M38.749 4.015c0 0.386-0.313 0.698-0.698 0.698s-0.698-0.313-0.698-0.698c0-0.386 0.313-0.698 0.698-0.698s0.698 0.313 0.698 0.698z"></path>
        <path fill="#fff" style="fill: var(--color3, #fff)" d="M33.687 24.727h3.433v1.455h-3.433v-1.455z"></path>
        <path fill="#fff" style="fill: var(--color3, #fff)" d="M43.753 22.865c-0.291-0.582-0.64-1.164-1.047-1.629-0.524-0.64-1.105-1.222-1.687-1.745s-1.164-1.105-1.687-1.629c-0.524-0.524-0.989-1.105-1.338-1.745-0.349-0.582-0.524-1.28-0.524-2.095s0.175-1.455 0.465-1.745c0.291-0.349 0.756-0.524 1.338-0.524s1.047 0.175 1.338 0.524c0.291 0.349 0.465 0.931 0.465 1.745v1.105h3.433v-0.873c0-1.862-0.465-3.316-1.338-4.305s-2.211-1.513-4.015-1.513c-1.804 0-3.142 0.524-4.015 1.513s-1.338 2.444-1.338 4.305c0 1.105 0.175 2.036 0.524 2.851s0.815 1.571 1.338 2.211c0.524 0.64 1.105 1.222 1.687 1.745s1.164 1.105 1.687 1.629c0.058 0.058 0.116 0.116 0.175 0.175 0.465 0.465 0.873 0.989 1.164 1.571 0.291 0.524 0.465 1.105 0.524 1.745h3.665c0-1.047-0.175-1.978-0.524-2.735-0.116-0.175-0.233-0.349-0.291-0.582z"></path>
        <path fill="#fff" style="fill: var(--color3, #fff)" d="M25.658 22.865c-0.116-0.582-0.233-1.047-0.465-1.513-0.407-0.873-1.105-1.455-2.095-1.862 0.815-0.349 1.396-0.931 1.804-1.745 0.349-0.756 0.582-1.745 0.582-2.967v-0.815c0-1.804-0.407-3.142-1.28-4.015s-2.211-1.338-4.131-1.338h-5.527v17.571h3.665v-4.771h1.571c0.815 0 1.455 0.175 1.804 0.582 0.175 0.175 0.291 0.465 0.407 0.815s0.116 0.815 0.116 1.396v1.978h3.665v-1.687c0-0.582-0.058-1.105-0.116-1.629zM21.818 15.709c0 0.931-0.175 1.571-0.582 1.92s-0.931 0.524-1.629 0.524h-1.396v-6.109h1.745c0.64 0 1.105 0.175 1.396 0.582 0.291 0.349 0.465 0.989 0.465 1.804v1.28z"></path>
        <path fill="#fff" style="fill: var(--color3, #fff)" d="M31.593 8.727h-3.607v17.455h3.607v-3.316z"></path>
        <path fill="#fff" style="fill: var(--color3, #fff)" d="M58.065 8.727h-3.665v9.949h-4.131v-9.949h-3.665v17.455h3.665v-4.247h4.131v4.247h3.665v-3.316z"></path>
        <path fill="#fff" style="fill: var(--color3, #fff)" d="M64.349 21.818h5.004v-3.316h-5.004v-6.458h6.284v-3.316h-9.891v17.455h3.607v-3.316z"></path>
        <path fill="#fff" style="fill: var(--color3, #fff)" d="M84.422 22.865v-14.138h-3.258v13.847l-3.724-13.847h-4.596v17.455h3.316v-11.055l2.095 7.738 0.873 3.316h5.295z"></path>
        <path fill="#ccc2c0" style="fill: var(--color4, #ccc2c0)" d="M38.516 27.52c-1.978 0-1.396-1.28-1.396-1.28h-3.433c0 0-1.338 2.967 4.305 2.967 6.4 0 6.516-2.967 6.516-2.967h-3.665c0 0-0.349 1.28-2.327 1.28z"></path>
        <path fill="#ccc2c0" style="fill: var(--color4, #ccc2c0)" d="M19.084 27.404h-2.095l1.222-1.222h-3.665l-2.909 2.909h5.702c8.204 0 8.436-2.909 8.436-2.909h-3.665c0.058 0 0.058 1.222-3.025 1.222z"></path>
        <path fill="#ccc2c0" style="fill: var(--color4, #ccc2c0)" d="M26.531 29.091h4.015l1.047-2.909h-3.607z"></path>
        <path fill="#ccc2c0" style="fill: var(--color4, #ccc2c0)" d="M45.905 29.149h4.015l0.349-2.967h-3.665z"></path>
        <path fill="#ccc2c0" style="fill: var(--color4, #ccc2c0)" d="M54.749 29.149h4.073l-0.756-2.967h-3.665z"></path>
        <path fill="#ccc2c0" style="fill: var(--color4, #ccc2c0)" d="M61.382 29.091h10.88l-0.931-1.687h-6.516l-0.465-1.222h-3.607z"></path>
        <path fill="#ccc2c0" style="fill: var(--color4, #ccc2c0)" d="M79.127 26.182l3.724 2.909h4.48l-2.909-2.909z"></path>
        <path fill="#ccc2c0" style="fill: var(--color4, #ccc2c0)" d="M74.705 29.091h3.607l-2.153-2.909h-3.316z"></path>
        </symbol>

        <symbol id="favicon" viewBox="0 0 32 32">
            <path fill="#0072bc" style="fill: var(--color5, #0072bc)" d="M32 32h-32v-32h27.008l0.653 4.34 4.34 0.653z"></path>
            <path fill="#00529c" style="fill: var(--color6, #00529c)" d="M32 4.992l-4.992-4.992v4.992z"></path>
            <path fill="#fff" style="fill: var(--color3, #fff)" d="M9.067 28.507v-25.014h7.533c4.163 0 5.998 2.928 5.998 6.368 0 3.14-1.499 5.098-3.669 5.733 2.364 0.37 4.004 3.069 4.004 6.139 0 3.828-1.764 6.739-6.068 6.739h-7.797zM17.764 10.69c0-1.799-0.635-3.034-2.399-3.034h-1.57v6.033h1.57c1.764 0 2.399-1.2 2.399-2.999zM18.099 21.081c0-1.835-0.829-3.228-2.593-3.228h-1.729v6.492h1.729c1.764 0 2.593-1.129 2.593-3.264z"></path>
        </symbol>
        

        <symbol id="iconmonstr-info-3" viewBox="0 0 32 32">
            <path d="M16 0c-8.836 0-16 7.164-16 16s7.164 16 16 16 16-7.164 16-16-7.164-16-16-16zM17.333 24h-2.667v-8h-2.667v-2.667h5.333v10.667zM16 11c-0.92 0-1.667-0.747-1.667-1.667s0.747-1.667 1.667-1.667 1.667 0.747 1.667 1.667-0.747 1.667-1.667 1.667z"></path>
        </symbol>

        <symbol id="iconmonstr-info-4" viewBox="0 0 32 32">
            <path d="M17.667 9.333c0 0.92-0.747 1.667-1.667 1.667s-1.667-0.747-1.667-1.667 0.747-1.667 1.667-1.667 1.667 0.747 1.667 1.667zM32 16c0 8.836-7.164 16-16 16s-16-7.164-16-16 7.164-16 16-16 16 7.164 16 16zM29.333 16c0-7.352-5.981-13.333-13.333-13.333s-13.333 5.981-13.333 13.333 5.981 13.333 13.333 13.333 13.333-5.981 13.333-13.333zM12 13.333v2.667h2.667v8h2.667v-10.667h-5.333z"></path>
        </symbol>

        <symbol id="iconmonstr-info-fusion" viewBox="0 0 32 32">
            <path d="M17.667 9.333c0 0.92-0.747 1.667-1.667 1.667s-1.667-0.747-1.667-1.667 0.747-1.667 1.667-1.667 1.667 0.747 1.667 1.667zM32 16c0 8.836-7.164 16-16 16s-16-7.164-16-16 7.164-16 16-16 16 7.164 16 16zM29.333 16c0-7.352-5.981-13.333-13.333-13.333s-13.333 5.981-13.333 13.333 5.981 13.333 13.333 13.333 13.333-5.981 13.333-13.333zM12 13.333v2.667h2.667v8h2.667v-10.667h-5.333z"></path>

            <path d="M16 0c-8.836 0-16 7.164-16 16s7.164 16 16 16 16-7.164 16-16-7.164-16-16-16zM17.333 24h-2.667v-8h-2.667v-2.667h5.333v10.667zM16 11c-0.92 0-1.667-0.747-1.667-1.667s0.747-1.667 1.667-1.667 1.667 0.747 1.667 1.667-0.747 1.667-1.667 1.667z"></path>
        </symbol>

        <symbol id="iconmonstr-menu-5" viewBox="0 0 32 32">
            <path d="M16 0c-8.836 0-16 7.164-16 16s7.164 16 16 16 16-7.164 16-16-7.164-16-16-16zM24 22.667h-16v-2.667h16v2.667zM24 17.333h-16v-2.667h16v2.667zM24 12h-16v-2.667h16v2.667z"></path>
        </symbol>

        <symbol id="iconmonstr-menu-6" viewBox="0 0 32 32">
            <path d="M16 2.667c7.352 0 13.333 5.981 13.333 13.333s-5.981 13.333-13.333 13.333-13.333-5.981-13.333-13.333 5.981-13.333 13.333-13.333zM16 0c-8.836 0-16 7.164-16 16s7.164 16 16 16 16-7.164 16-16-7.164-16-16-16zM24 22.667h-16v-2.667h16v2.667zM24 17.333h-16v-2.667h16v2.667zM24 12h-16v-2.667h16v2.667z"></path>
        </symbol>


    </defs>
</svg>
